<svg width="137" height="33" viewBox="0 0 137 33" fill="none" xmlns="http://www.w3.org/2000/svg">
<path d="M51.9149 13.0821C51.8162 12.7363 51.6772 12.4306 51.4978 12.1651C51.3184 11.8948 51.0987 11.6671 50.8386 11.4819C50.5833 11.292 50.2901 11.147 49.9588 11.0469C49.6323 10.9468 49.2702 10.8964 48.8725 10.8956C48.1291 10.8941 47.4753 11.0774 46.9111 11.4456C46.3517 11.8138 45.915 12.3503 45.6011 13.0551C45.2871 13.7553 45.1292 14.612 45.1271 15.6252C45.1251 16.6385 45.2772 17.5005 45.5835 18.2114C45.8898 18.9222 46.3244 19.4652 46.887 19.8404C47.4497 20.2109 48.1146 20.3969 48.8817 20.3984C49.5777 20.3999 50.1721 20.278 50.6651 20.0327C51.1627 19.7828 51.5422 19.4308 51.8036 18.9768C52.0696 18.5228 52.2033 17.9857 52.2046 17.3654L52.8294 17.459L49.0794 17.4514L49.0841 15.1361L55.1707 15.1484L55.167 16.9808C55.1644 18.2592 54.8923 19.3571 54.3507 20.2746C53.809 21.1873 53.0642 21.8913 52.1163 22.3865C51.1683 22.877 50.0835 23.1211 48.8619 23.1186C47.4983 23.1158 46.301 22.8127 45.27 22.2093C44.2391 21.6012 43.4359 20.7402 42.8605 19.6263C42.2898 18.5077 42.0061 17.1814 42.0092 15.6473C42.0115 14.4683 42.1841 13.4175 42.5269 12.4949C42.8744 11.5676 43.359 10.7826 43.9805 10.1399C44.6021 9.49724 45.3252 9.00865 46.1497 8.67414C46.9743 8.33963 47.8671 8.17336 48.8283 8.1753C49.6521 8.17697 50.4189 8.29926 51.1287 8.54218C51.8384 8.78036 52.4675 9.11781 53.0158 9.55452C53.5689 9.99125 54.0201 10.5106 54.3692 11.1127C54.7184 11.71 54.942 12.3686 55.0399 13.0885L51.9149 13.0821ZM60.5185 23.1493C59.8225 23.1479 59.2025 23.0259 58.6584 22.7833C58.1144 22.536 57.6843 22.1729 57.368 21.694C57.0565 21.2105 56.9015 20.6088 56.9029 19.8891C56.9042 19.2831 57.0165 18.7743 57.2398 18.3628C57.4632 17.9513 57.7669 17.6205 58.1509 17.3703C58.535 17.1202 58.971 16.9317 59.4589 16.8048C59.9516 16.678 60.4679 16.589 61.0077 16.5381C61.6424 16.473 62.1538 16.4125 62.5422 16.3565C62.9306 16.2957 63.2125 16.2063 63.3879 16.0883C63.5634 15.9703 63.6513 15.7953 63.6518 15.5633L63.6519 15.5207C63.6528 15.0709 63.5114 14.7226 63.2278 14.4758C62.949 14.229 62.5515 14.1051 62.0354 14.104C61.4909 14.1029 61.0574 14.2228 60.735 14.4636C60.4125 14.6997 60.1988 14.9976 60.0939 15.3572L57.2961 15.1243C57.4395 14.4617 57.72 13.8893 58.1377 13.4072C58.5553 12.9204 59.0935 12.5474 59.7521 12.2883C60.4156 12.0245 61.1829 11.8935 62.0541 11.8953C62.6601 11.8965 63.24 11.9687 63.7937 12.1119C64.3521 12.255 64.8465 12.4762 65.2767 12.7754C65.7117 13.0746 66.0542 13.4588 66.3042 13.928C66.5542 14.3926 66.6786 14.9492 66.6773 15.5978L66.6624 22.9558L63.7931 22.95L63.7961 21.4372L63.7109 21.437C63.535 21.7776 63.3 22.0777 63.006 22.3376C62.7119 22.5927 62.3587 22.7932 61.9465 22.9391C61.5343 23.0803 61.0583 23.1504 60.5185 23.1493ZM61.3892 21.063C61.8343 21.0639 62.2275 20.9771 62.5687 20.8026C62.91 20.6234 63.178 20.3824 63.3727 20.0798C63.5675 19.7771 63.6652 19.4341 63.666 19.0505L63.6684 17.8929C63.5735 17.9542 63.4432 18.0108 63.2774 18.0625C63.1163 18.1096 62.9339 18.1542 62.7302 18.1964C62.5266 18.2338 62.3229 18.2689 62.1192 18.3017C61.9156 18.3297 61.7309 18.3553 61.5651 18.3787C61.2099 18.43 60.8996 18.5123 60.6342 18.6254C60.3688 18.7385 60.1625 18.8919 60.0154 19.0858C59.8682 19.2749 59.7943 19.5115 59.7938 19.7955C59.7929 20.2075 59.9414 20.5226 60.2393 20.741C60.5419 20.9547 60.9252 21.062 61.3892 21.063ZM69.0097 22.9605L69.0318 12.0515L71.9153 12.0573L71.9114 13.982L72.0392 13.9823C72.2678 13.3435 72.6476 12.84 73.1787 12.4718C73.7097 12.1035 74.3445 11.9202 75.0832 11.9217C75.8313 11.9232 76.4677 12.1115 76.9925 12.4866C77.5174 12.857 77.8667 13.3596 78.0406 13.9944L78.1543 13.9946C78.3781 13.3701 78.7815 12.8714 79.3647 12.4985C79.9526 12.1209 80.6466 11.9329 81.4468 11.9345C82.4648 11.9366 83.2904 12.2626 83.9235 12.9126C84.5614 13.5578 84.8792 14.4723 84.8768 15.656L84.8619 22.9926L81.8435 22.9865L81.8571 16.2465C81.8583 15.6404 81.6983 15.1855 81.3769 14.8819C81.0556 14.5782 80.6534 14.4258 80.1704 14.4249C79.6212 14.4238 79.1923 14.5981 78.8839 14.9478C78.5754 15.2928 78.4206 15.7494 78.4195 16.3176L78.406 22.9795L75.4727 22.9736L75.4865 16.1696C75.4876 15.6346 75.3346 15.2082 75.0274 14.8903C74.7251 14.5725 74.3253 14.413 73.8281 14.412C73.492 14.4113 73.1888 14.496 72.9185 14.6659C72.653 14.831 72.4419 15.065 72.285 15.3677C72.1281 15.6657 72.0493 16.0159 72.0485 16.4184L72.0352 22.9666L69.0097 22.9605ZM92.223 23.2206C91.1008 23.2183 90.1354 22.9891 89.3266 22.5329C88.5226 22.072 87.9037 21.4221 87.4698 20.5831C87.0359 19.7394 86.8201 18.7423 86.8224 17.5918C86.8247 16.4696 87.0445 15.4852 87.4818 14.6385C87.9191 13.7919 88.5336 13.1326 89.3253 12.6607C90.1217 12.1889 91.055 11.954 92.125 11.9562C92.8447 11.9576 93.5145 12.075 94.1343 12.3083C94.7588 12.5368 95.3026 12.8812 95.7657 13.3414C96.2335 13.8016 96.5969 14.38 96.856 15.0766C97.115 15.7684 97.2435 16.5783 97.2417 17.5063L97.24 18.3373L88.0283 18.3186L88.0321 16.4436L94.3958 16.4565C94.3966 16.0209 94.3027 15.6348 94.114 15.2983C93.9253 14.9617 93.6631 14.6984 93.3273 14.5083C92.9962 14.3135 92.6105 14.2157 92.1702 14.2148C91.7109 14.2139 91.3035 14.3196 90.948 14.5319C90.5972 14.7395 90.322 15.0207 90.1224 15.3754C89.9228 15.7254 89.8202 16.1158 89.8146 16.5467L89.811 18.3293C89.8099 18.8691 89.9084 19.3357 90.1065 19.7291C90.3093 20.1225 90.5951 20.4261 90.964 20.6399C91.3329 20.8537 91.7706 20.9612 92.2773 20.9622C92.6134 20.9629 92.9213 20.9161 93.2008 20.822C93.4804 20.7279 93.7198 20.5863 93.919 20.3973C94.1183 20.2083 94.2703 19.9766 94.375 19.7022L97.1729 19.8925C97.0295 20.5646 96.7371 21.1511 96.2958 21.6521C95.8591 22.1484 95.2949 22.5355 94.6031 22.8135C93.916 23.0867 93.1226 23.2224 92.223 23.2206ZM102.243 16.721L102.23 23.0278L99.2049 23.0217L99.2344 8.47624L102.175 8.4822L102.163 14.0433L102.291 14.0435C102.539 13.4001 102.938 12.8966 103.488 12.5332C104.038 12.165 104.727 11.9817 105.555 11.9834C106.313 11.9849 106.973 12.152 107.536 12.4845C108.103 12.8124 108.543 13.2844 108.854 13.9006C109.17 14.512 109.325 15.2438 109.318 16.0961L109.304 23.0421L106.279 23.036L106.292 16.6298C106.298 15.9574 106.128 15.4339 105.784 15.0591C105.443 14.6844 104.966 14.4964 104.35 14.4951C103.938 14.4943 103.573 14.5812 103.256 14.7557C102.943 14.9303 102.696 15.1854 102.516 15.5213C102.34 15.8523 102.249 16.2522 102.243 16.721ZM118.69 18.4162L118.703 12.152L121.729 12.1582L121.707 23.0672L118.802 23.0614L118.806 21.0798L118.692 21.0796C118.445 21.7183 118.034 22.2312 117.46 22.6183C116.891 23.0054 116.197 23.1981 115.378 23.1965C114.649 23.195 114.008 23.028 113.455 22.6954C112.901 22.3628 112.469 21.8909 112.158 21.2794C111.851 20.668 111.696 19.9362 111.693 19.0839L111.707 12.1379L114.733 12.144L114.72 18.5502C114.723 19.1942 114.895 19.7035 115.235 20.0783C115.576 20.453 116.032 20.641 116.605 20.6421C116.97 20.6429 117.311 20.5607 117.628 20.3956C117.946 20.2258 118.202 19.9754 118.397 19.6443C118.596 19.3133 118.694 18.9039 118.69 18.4162ZM124.184 23.0723L124.213 8.52682L127.239 8.53295L127.228 14.0017L127.32 14.0019C127.453 13.7086 127.645 13.4107 127.897 13.1082C128.153 12.8009 128.485 12.5459 128.893 12.3431C129.305 12.1356 129.817 12.0325 130.428 12.0337C131.223 12.0353 131.956 12.2452 132.628 12.6632C133.299 13.0765 133.836 13.7002 134.236 14.5344C134.637 15.3638 134.836 16.4035 134.834 17.6535C134.831 18.8703 134.633 19.8974 134.238 20.7347C133.848 21.5672 133.317 22.1982 132.643 22.6277C131.975 23.0525 131.226 23.2641 130.398 23.2624C129.811 23.2612 129.311 23.1631 128.9 22.9682C128.493 22.7732 128.16 22.5287 127.9 22.2346C127.64 21.9358 127.442 21.6347 127.305 21.3314L127.17 21.3311L127.167 23.0783L124.184 23.0723ZM127.156 17.6237C127.155 18.2724 127.244 18.8384 127.423 19.3217C127.602 19.805 127.861 20.182 128.202 20.4525C128.542 20.7184 128.956 20.8518 129.444 20.8528C129.936 20.8538 130.353 20.7197 130.695 20.4505C131.036 20.1766 131.295 19.7983 131.471 19.3157C131.652 18.8284 131.743 18.2675 131.744 17.633C131.746 17.0033 131.659 16.4491 131.485 15.9705C131.311 15.492 131.053 15.1174 130.713 14.8468C130.373 14.5762 129.954 14.4405 129.457 14.4394C128.964 14.4384 128.547 14.5678 128.206 14.8275C127.869 15.0873 127.61 15.4561 127.43 15.9339C127.249 16.4118 127.158 16.975 127.156 17.6237Z" fill="white"/>
<path d="M21.4726 8.0133C22.4122 7.98734 23.353 8.00865 24.2931 8.00168H28.2841C28.4506 8.00206 28.6195 7.99238 28.7833 8.0315C29.1772 8.11516 29.5285 8.37389 29.7303 8.7221C29.9503 9.0947 29.9863 9.56801 29.8295 9.97083C29.6591 10.4182 29.2547 10.7679 28.786 10.8671C28.6075 10.9105 28.4223 10.8992 28.2407 10.9004H21.8886C20.5368 10.9151 19.2056 11.5046 18.2841 12.4927C17.3278 13.4959 16.8181 14.9057 16.9165 16.2885C16.9955 17.5988 17.6203 18.8615 18.6044 19.7279C19.51 20.5386 20.7146 21.0057 21.9304 21.0146C22.284 21.0103 22.6427 21.12 22.9169 21.3473C23.2523 21.6177 23.4491 22.0538 23.4142 22.4853C23.3832 22.859 23.2655 23.2436 23.0033 23.5214C22.7686 23.7735 22.4231 23.8994 22.0838 23.9133C20.4605 23.954 18.8295 23.4698 17.4897 22.5527C16.2778 21.7253 15.2994 20.5591 14.696 19.2213C14.0476 17.7917 13.8516 16.1676 14.1107 14.6218C14.3993 12.8622 15.318 11.2223 16.6419 10.032C17.9596 8.83365 19.6951 8.11206 21.4726 8.0133V8.0133Z" fill="#407BFF"/>
<path d="M21.7809 14.5176C22.3205 14.4963 22.8612 14.5114 23.4015 14.5075C25.132 14.5064 26.863 14.5083 28.5932 14.5079C29.3105 14.5513 29.9225 15.1974 29.9256 15.9162C29.9298 17.9776 29.9263 20.0389 29.9275 22.1003C29.9244 22.345 29.9445 22.5953 29.8791 22.8346C29.7675 23.2704 29.4395 23.6418 29.0227 23.8103C28.5006 24.0295 27.8561 23.9056 27.456 23.5031C27.1938 23.2471 27.033 22.8885 27.0226 22.5217C27.0113 21.9659 27.0582 21.4035 26.9459 20.8546C26.7232 19.6651 25.959 18.595 24.9132 17.9888C24.4367 17.7098 23.91 17.5269 23.3631 17.4504C22.9654 17.3919 22.5621 17.4101 22.1617 17.4074C21.9932 17.4067 21.8224 17.4171 21.6577 17.3772C21.2449 17.2912 20.8784 17.0135 20.6813 16.6413C20.4861 16.2811 20.4574 15.8368 20.6 15.4534C20.7801 14.9549 21.2538 14.5776 21.7809 14.5176V14.5176Z" fill="#407BFF"/>
</svg>
